<?xml version="1.0" encoding="UTF-8" standalone="no"?>
<!-- Created with Inkscape (http://www.inkscape.org/) -->

<svg
   width="512"
   height="512"
   viewBox="0 0 512 512"
   version="1.1"
   id="svg1"
   xmlns="http://www.w3.org/2000/svg"
   xmlns:svg="http://www.w3.org/2000/svg">
  <defs
     id="defs1" />
  <g
     id="layer1">
    <path
       id="path5"
       style="fill:#000000;fill-rule:evenodd;stroke-width:0.871113;stroke-linejoin:bevel"
       d="M 256,0 C 114.6151,0 0,114.6151 0,256 0,397.3849 114.6151,512 256,512 397.3849,512 512,397.3849 512,256 512,114.6151 397.3849,0 256,0 Z m 0,88.738281 c 4.74277,0 10.07227,4.445313 10.07227,4.445313 l 169.9707,139.505856 c 0,0 9.00468,7.63219 7.31445,12.00196 -1.8651,4.82187 -14.88281,4.36328 -14.88281,4.36328 H 400.9668 V 400.9668 H 292.63672 v -86.21928 c 0,0 0.13271,-14.21166 -4.40763,-18.752 -4.54034,-4.54034 -18.752,-4.40763 -18.752,-4.40763 h -26.95418 c 0,0 -14.21165,-0.13271 -18.752,4.40763 -4.54034,4.54035 -4.40763,18.752 -4.40763,18.752 V 400.9668 H 111.0332 V 249.05469 H 83.525391 c 0,0 -13.017713,0.45859 -14.882813,-4.36328 -1.69023,-4.36977 7.314453,-12.00196 7.314453,-12.00196 L 245.92773,93.183594 c 0,0 5.3295,-4.445313 10.07227,-4.445313 z" />
  </g>
</svg>
